<svg version="1.1" id="Layer_1" xmlns="http://www.w3.org/2000/svg" xmlns:xlink="http://www.w3.org/1999/xlink" x="0px" y="0px"
	 width="100%" viewBox="0 0 160 142" enable-background="new 0 0 160 142" xml:space="preserve">
<path fill="#0EBCDB" opacity="1.000000" stroke="none" 
	d="
M117.000000,1.000000 
	C118.066673,1.000000 119.133339,1.000000 120.702637,1.327796 
	C129.396622,15.916611 137.540955,30.204937 145.796967,44.428429 
	C150.774887,53.004391 155.926468,61.479546 161.000000,70.000000 
	C161.000000,70.750000 161.000000,71.500000 160.675156,72.751900 
	C147.946350,95.003662 135.569183,116.768936 123.087173,138.473907 
	C122.096588,140.196426 120.379471,141.501129 119.000000,143.000000 
	C115.638710,143.000000 112.277428,143.000000 108.186714,142.673264 
	C96.987320,142.281998 86.517342,142.217484 75.577316,142.109161 
	C69.960327,142.056091 64.809578,141.920792 59.667660,142.076813 
	C55.439663,142.205078 51.222157,142.679169 47.000000,143.000000 
	C45.285641,143.000000 43.571285,143.000000 41.335155,142.668625 
	C30.859955,124.720482 20.944477,107.082092 10.930935,89.499565 
	C7.755069,83.923141 4.317701,78.495644 1.000001,73.000000 
	C1.000000,72.250000 1.000000,71.500000 1.338195,70.282547 
	C14.784260,46.876732 27.892130,23.938366 41.000000,1.000000 
	C50.354229,1.000000 59.708454,1.000000 69.885361,1.212449 
	C85.538948,1.547650 100.369804,1.679818 115.200951,1.759002 
	C115.799271,1.762197 116.400253,1.264384 117.000000,1.000000 
M123.859207,129.847443 
	C134.334244,111.363014 144.809280,92.878578 155.284317,74.394142 
	C149.290253,74.485344 144.333710,75.818161 139.290237,76.559898 
	C135.817307,77.070656 134.237244,78.481804 133.462234,82.005615 
	C129.967911,97.893669 126.159142,113.712563 122.229729,130.084030 
	C122.267677,130.552048 122.305618,131.020081 122.343559,131.488098 
	C122.679901,131.093811 123.016243,130.699539 123.859207,129.847443 
M11.057809,64.208817 
	C23.422241,52.377583 35.817387,40.577969 48.092525,28.654800 
	C49.069492,27.705845 50.030781,25.567476 49.613373,24.550982 
	C47.297291,18.910656 44.552357,13.446429 41.596870,7.162021 
	C38.135021,13.251149 35.081699,18.547302 32.098900,23.882881 
	C24.658411,37.192287 17.249985,50.519615 9.410641,64.059235 
	C9.774696,64.234772 10.138751,64.410309 11.057809,64.208817 
M54.321175,47.503189 
	C54.321175,70.986320 54.321175,94.469452 54.321175,119.023094 
	C80.011826,104.421135 104.462654,90.523857 129.703033,76.177826 
	C104.379471,60.623882 79.869148,45.569435 54.321224,29.877687 
	C54.321224,36.308475 54.321224,41.407085 54.321175,47.503189 
M123.914459,33.763336 
	C122.274902,24.968258 120.635345,16.173180 118.927986,7.014403 
	C98.328911,13.711346 78.111641,20.284161 56.750305,27.228922 
	C81.820663,42.625095 105.743561,57.316597 130.750351,72.673729 
	C128.341965,59.071148 126.177246,46.844719 123.914459,33.763336 
M50.679222,57.500145 
	C50.679222,49.100384 50.679222,40.700626 50.679222,30.982342 
	C35.655155,45.414127 21.691320,58.827477 7.409376,72.546394 
	C21.704391,87.350708 35.606236,101.747833 49.508076,116.144966 
	C49.898445,115.989136 50.288811,115.833313 50.679176,115.677490 
	C50.679176,96.618370 50.679176,77.559258 50.679222,57.500145 
M120.207474,85.703758 
	C99.634819,97.407555 79.062164,109.111351 57.359737,121.457878 
	C78.086426,126.622520 97.464752,131.451172 117.326820,136.400360 
	C121.751968,117.422585 126.018364,99.125641 130.538010,79.742607 
	C126.549469,82.029991 123.688271,83.670860 120.207474,85.703758 
M89.411308,12.951489 
	C96.744637,10.578314 104.077972,8.205138 111.411301,5.831963 
	C111.354263,5.606942 111.297234,5.381922 111.240196,5.156901 
	C89.210953,5.156901 67.181702,5.156901 44.430878,5.156901 
	C47.635891,11.989713 50.544971,18.191620 53.577942,24.657656 
	C65.645332,20.689978 77.138107,16.911232 89.411308,12.951489 
M142.779602,46.752159 
	C137.026184,36.700069 131.272766,26.647984 125.519348,16.595896 
	C125.137451,16.808140 124.755562,17.020384 124.373672,17.232628 
	C127.774940,36.053699 131.176208,54.874771 134.674103,74.230476 
	C141.712662,72.699142 148.384964,71.247498 155.624680,69.672401 
	C151.210693,61.812374 147.164673,54.607613 142.779602,46.752159 
M47.355022,133.812180 
	C46.662373,135.177155 45.969727,136.542130 45.151886,138.153809 
	C66.507179,138.153809 87.182602,138.153809 107.858025,138.153809 
	C93.457718,133.868820 78.994392,130.234161 64.539520,126.566223 
	C53.519268,123.769821 53.524033,123.751038 47.355022,133.812180 
M40.755810,134.420227 
	C41.538567,134.374649 42.762909,134.630157 43.032528,134.234711 
	C44.804100,131.636444 46.201702,128.775711 48.046253,126.236671 
	C50.213234,123.253784 49.645653,121.115829 47.135864,118.578171 
	C36.982258,108.311806 27.017937,97.858368 16.959164,87.497856 
	C16.026911,86.537643 14.920828,85.746193 13.895459,84.876381 
	C13.619189,85.121620 13.342918,85.366859 13.066648,85.612106 
	C22.155161,101.698753 31.243675,117.785408 40.755810,134.420227 
z"/>
<path fill="#FDFEFF" opacity="1.000000" stroke="none" 
	d="
M119.468658,143.000000 
	C120.379471,141.501129 122.096588,140.196426 123.087173,138.473907 
	C135.569183,116.768936 147.946350,95.003662 160.675156,73.126900 
	C161.000000,96.241814 161.000000,119.483635 161.000000,143.000000 
	C147.313660,143.000000 133.625488,143.000000 119.468658,143.000000 
z"/>
<path fill="#FDFEFF" opacity="1.000000" stroke="none" 
	d="
M1.000001,73.468658 
	C4.317701,78.495644 7.755069,83.923141 10.930935,89.499565 
	C20.944477,107.082092 30.859955,124.720482 40.906693,142.668625 
	C27.719917,143.000000 14.439835,143.000000 1.000000,143.000000 
	C1.000000,119.979324 1.000000,96.958321 1.000001,73.468658 
z"/>
<path fill="#FDFEFF" opacity="1.000000" stroke="none" 
	d="
M161.000000,69.531342 
	C155.926468,61.479546 150.774887,53.004391 145.796967,44.428429 
	C137.540955,30.204937 129.396622,15.916611 121.102631,1.327796 
	C134.279587,1.000000 147.559189,1.000000 161.000000,1.000000 
	C161.000000,23.687332 161.000000,46.375008 161.000000,69.531342 
z"/>
<path fill="#FDFFFF" opacity="1.000000" stroke="none" 
	d="
M40.531342,1.000000 
	C27.892130,23.938366 14.784260,46.876732 1.338195,69.907547 
	C1.000000,47.092701 1.000000,24.185398 1.000000,1.000000 
	C14.019575,1.000000 27.041130,1.000000 40.531342,1.000000 
z"/>
<path fill="#20C1DE" opacity="1.000000" stroke="none" 
	d="
M116.531342,1.000000 
	C116.400253,1.264384 115.799271,1.762197 115.200951,1.759002 
	C100.369804,1.679818 85.538948,1.547650 70.354019,1.212449 
	C85.354225,1.000000 100.708458,1.000000 116.531342,1.000000 
z"/>
<path fill="#A0E6F2" opacity="1.000000" stroke="none" 
	d="
M76.047371,142.152954 
	C86.517342,142.217484 96.987320,142.281998 107.728645,142.673264 
	C97.645775,143.000000 87.291542,143.000000 76.474548,142.787903 
	C76.011780,142.575806 76.047371,142.152954 76.047371,142.152954 
z"/>
<path fill="#7DDAEC" opacity="1.000000" stroke="none" 
	d="
M75.577316,142.109161 
	C76.047371,142.152954 76.011780,142.575806 76.005890,142.787903 
	C66.645767,143.000000 57.291542,143.000000 47.468658,143.000000 
	C51.222157,142.679169 55.439663,142.205078 59.667660,142.076813 
	C64.809578,141.920792 69.960327,142.056091 75.577316,142.109161 
z"/>
<path fill="#FBFEFE" opacity="1.000000" stroke="none" 
	d="
M54.321198,47.004444 
	C54.321224,41.407085 54.321224,36.308475 54.321224,29.877687 
	C79.869148,45.569435 104.379471,60.623882 129.703033,76.177826 
	C104.462654,90.523857 80.011826,104.421135 54.321175,119.023094 
	C54.321175,94.469452 54.321175,70.986320 54.321198,47.004444 
z"/>
<path fill="#FCFEFE" opacity="1.000000" stroke="none" 
	d="
M123.963486,34.190811 
	C126.177246,46.844719 128.341965,59.071148 130.750351,72.673729 
	C105.743561,57.316597 81.820663,42.625095 56.750305,27.228922 
	C78.111641,20.284161 98.328911,13.711346 118.927986,7.014403 
	C120.635345,16.173180 122.274902,24.968258 123.963486,34.190811 
z"/>
<path fill="#F9FDFE" opacity="1.000000" stroke="none" 
	d="
M50.679199,58.000145 
	C50.679176,77.559258 50.679176,96.618370 50.679176,115.677490 
	C50.288811,115.833313 49.898445,115.989136 49.508076,116.144966 
	C35.606236,101.747833 21.704391,87.350708 7.409376,72.546394 
	C21.691320,58.827477 35.655155,45.414127 50.679222,30.982342 
	C50.679222,40.700626 50.679222,49.100384 50.679199,58.000145 
z"/>
<path fill="#FBFEFE" opacity="1.000000" stroke="none" 
	d="
M120.517273,85.507736 
	C123.688271,83.670860 126.549469,82.029991 130.538010,79.742607 
	C126.018364,99.125641 121.751968,117.422585 117.326820,136.400360 
	C97.464752,131.451172 78.086426,126.622520 57.359737,121.457878 
	C79.062164,109.111351 99.634819,97.407555 120.517273,85.507736 
z"/>
<path fill="#FBFEFE" opacity="1.000000" stroke="none" 
	d="
M89.021088,13.041988 
	C77.138107,16.911232 65.645332,20.689978 53.577942,24.657656 
	C50.544971,18.191620 47.635891,11.989713 44.430878,5.156901 
	C67.181702,5.156901 89.210953,5.156901 111.240196,5.156901 
	C111.297234,5.381922 111.354263,5.606942 111.411301,5.831963 
	C104.077972,8.205138 96.744637,10.578314 89.021088,13.041988 
z"/>
<path fill="#F9FDFE" opacity="1.000000" stroke="none" 
	d="
M142.949127,47.077507 
	C147.164673,54.607613 151.210693,61.812374 155.624680,69.672401 
	C148.384964,71.247498 141.712662,72.699142 134.674103,74.230476 
	C131.176208,54.874771 127.774940,36.053699 124.373672,17.232628 
	C124.755562,17.020384 125.137451,16.808140 125.519348,16.595896 
	C131.272766,26.647984 137.026184,36.700069 142.949127,47.077507 
z"/>
<path fill="#F7FDFE" opacity="1.000000" stroke="none" 
	d="
M9.828688,63.839748 
	C17.249985,50.519615 24.658411,37.192287 32.098900,23.882881 
	C35.081699,18.547302 38.135021,13.251149 41.596870,7.162021 
	C44.552357,13.446429 47.297291,18.910656 49.613373,24.550982 
	C50.030781,25.567476 49.069492,27.705845 48.092525,28.654800 
	C35.817387,40.577969 23.422241,52.377583 10.616232,64.206787 
	C10.059332,64.083084 9.944010,63.961414 9.828688,63.839748 
z"/>
<path fill="#F7FDFE" opacity="1.000000" stroke="none" 
	d="
M122.463699,129.556381 
	C126.159142,113.712563 129.967911,97.893669 133.462234,82.005615 
	C134.237244,78.481804 135.817307,77.070656 139.290237,76.559898 
	C144.333710,75.818161 149.290253,74.485344 155.284317,74.394142 
	C144.809280,92.878578 134.334244,111.363014 123.384720,129.887909 
	C122.761383,129.804367 122.612549,129.680374 122.463699,129.556381 
z"/>
<path fill="#EBF9FC" opacity="1.000000" stroke="none" 
	d="
M47.550621,133.507172 
	C53.524033,123.751038 53.519268,123.769821 64.539520,126.566223 
	C78.994392,130.234161 93.457718,133.868820 107.858025,138.153809 
	C87.182602,138.153809 66.507179,138.153809 45.151886,138.153809 
	C45.969727,136.542130 46.662373,135.177155 47.550621,133.507172 
z"/>
<path fill="#F5FCFD" opacity="1.000000" stroke="none" 
	d="
M40.543999,134.146149 
	C31.243675,117.785408 22.155161,101.698753 13.066648,85.612106 
	C13.342918,85.366859 13.619189,85.121620 13.895459,84.876381 
	C14.920828,85.746193 16.026911,86.537643 16.959164,87.497856 
	C27.017937,97.858368 36.982258,108.311806 47.135864,118.578171 
	C49.645653,121.115829 50.213234,123.253784 48.046253,126.236671 
	C46.201702,128.775711 44.804100,131.636444 43.032528,134.234711 
	C42.762909,134.630157 41.538567,134.374649 40.543999,134.146149 
z"/>
<path fill="#F7FDFE" opacity="1.000000" stroke="none" 
	d="
M123.131409,130.116821 
	C123.016243,130.699539 122.679901,131.093811 122.343567,131.488098 
	C122.305618,131.020081 122.267677,130.552048 122.346718,129.820206 
	C122.612549,129.680374 122.761383,129.804367 123.131409,130.116821 
z"/>
<path fill="#F7FDFE" opacity="1.000000" stroke="none" 
	d="
M10.338730,64.395294 
	C10.138751,64.410309 9.774696,64.234772 9.619664,63.949493 
	C9.944010,63.961414 10.059332,64.083084 10.338730,64.395294 
z"/>
</svg>